<svg xmlns="http://www.w3.org/2000/svg" width="24" height="24" viewBox="0 0 24 24">
    <g fill="none" fill-rule="evenodd">
        <path d="M0 0H23.988V23.997H0z"/>
        <path d="M0.013 0.003H24.001V24H0.013z"/>
        <path fill="#FFF" d="M11.963 1.57c-4.275 0-7.753 3.452-7.753 7.697 0 3.79 4.163 9.396 6.163 12.088l.495.668c.262.345.66.544 1.095.544.435 0 .835-.197 1.1-.55l.477-.637c2.005-2.665 6.175-8.21 6.175-12.112 0-4.246-3.477-7.698-7.752-7.698zm0 10.355c-1.51 0-2.74-1.23-2.74-2.743 0-1.512 1.23-2.742 2.74-2.742 1.51 0 2.74 1.23 2.74 2.742 0 1.513-1.23 2.743-2.74 2.743z"/>
    </g>
</svg>
