<svg xmlns="http://www.w3.org/2000/svg" width="24" height="24" viewBox="0 0 24 24">
    <g fill="none" fill-rule="evenodd">
        <path d="M0 0H24V24H0z"/>
        <path d="M0 0H24V24H0z"/>
        <path fill="#FFF" d="M7.811 2.561v1.56c0 .942.765 1.705 1.708 1.708h4.957c.943 0 1.708-.765 1.708-1.708v-1.56h1.61c1.102 0 1.997.89 2 1.993v15.91c-.005 1.1-.898 1.992-2 1.992H6.2c-1.102 0-1.995-.89-2-1.992V4.554c.003-1.1.898-1.993 2-1.993h1.61zm7.943 7.125c-.293-.293-.768-.293-1.06 0l-3.953 3.953-1.45-1.45c-.29-.286-.755-.286-1.047 0-.298.29-.303.764-.013 1.06l1.98 1.98c.14.142.333.222.533.22.2 0 .392-.078.532-.22l4.483-4.483h-.005l.072-.084c.218-.293.194-.71-.072-.976zm-1.275-8.143c.53 0 .957.43.957.958v1.62l-.006.112c-.056.477-.461.846-.951.846H9.52l-.112-.007c-.477-.055-.845-.461-.845-.951v-1.62l.006-.112c.056-.477.461-.845.951-.845zm-.543 1.5h-3.872v.533h3.872v-.533z"/>
    </g>
</svg>
