<svg height="24" viewBox="0 0 24 24" width="24" xmlns="http://www.w3.org/2000/svg"><path d="m20 10c0-3.15984359-1.7174793-5-4.5-5-1.4835446 0-2.4739584.56595071-3.0527864 1.7236068-.1842621.36852427-.7101651.36852427-.8944272 0-.578828-1.15765609-1.56924178-1.7236068-3.0527864-1.7236068-2.78252069 0-4.5 1.84015641-4.5 5 0 2.3991298 2.6486666 5.3989911 8 8.9034052 5.3513334-3.5044141 8-6.5042754 8-8.9034052zm-4.5-6c3.3508126 0 5.5 2.30270074 5.5 6 0 2.8939525-2.9283794 6.1668472-8.7283744 9.9197851-.1652913.1069532-.3779599.1069532-.5432512 0-5.79999495-3.7529379-8.7283744-7.0258326-8.7283744-9.9197851 0-3.69729926 2.14918735-6 5.5-6 1.5277019 0 2.7096804.52341355 3.5 1.55573272.7903196-1.03231917 1.9722981-1.55573272 3.5-1.55573272z"/></svg>